<svg width="35" height="34" viewBox="0 0 35 34" fill="none" xmlns="http://www.w3.org/2000/svg">
<g clip-path="url(#clip0_6_13)">
<path d="M0.269043 0.587875L4.25476 2.42903C4.68409 2.62284 4.99808 3.00399 5.11342 3.46266L9.48362 20.7308C9.65663 21.422 10.2782 21.9065 10.9895 21.9065H29.6942C30.4183 21.9065 31.0462 21.4026 31.2064 20.692L34.3207 7.04161C34.5706 5.93692 33.744 4.8839 32.6162 4.8839H10.3551" stroke="black" stroke-width="2" stroke-miterlimit="10"/>
<path d="M14.1421 33.3475C15.7488 33.3475 17.0513 32.0344 17.0513 30.4146C17.0513 28.7948 15.7488 27.4817 14.1421 27.4817C12.5354 27.4817 11.2329 28.7948 11.2329 30.4146C11.2329 32.0344 12.5354 33.3475 14.1421 33.3475Z" stroke="black" stroke-width="2" stroke-miterlimit="10"/>
<path d="M26.9451 33.3475C28.5518 33.3475 29.8543 32.0344 29.8543 30.4146C29.8543 28.7948 28.5518 27.4817 26.9451 27.4817C25.3384 27.4817 24.0359 28.7948 24.0359 30.4146C24.0359 32.0344 25.3384 33.3475 26.9451 33.3475Z" stroke="black" stroke-width="2" stroke-miterlimit="10"/>
</g>
<defs>
<clipPath id="clip0_6_13">
<rect width="35" height="34" fill="white"/>
</clipPath>
</defs>
</svg>
