<svg width="177" height="217" viewBox="0 0 177 217" fill="none" xmlns="http://www.w3.org/2000/svg">
<g clip-path="url(#clip0_50_17)">
<path d="M118.255 44.6461C113.288 41.217 108.912 36.3716 105.491 30.5452C102.857 26.0534 98.6578 17.6308 98.3666 16.2273C97.9129 14.0406 93.8135 13.972 94.6938 18.2149C95.1476 20.4017 96.3459 33.3959 93.5502 41.9081C90.9086 50.0138 89.6954 52.2063 87.048 54.0493C85.5256 55.0801 85.895 55.5478 88.4143 55.8762C94.6437 56.6943 98.2638 61.0156 107.365 78.4638C112.668 88.5978 114.493 87.8786 113.688 75.9602C112.864 64.1139 115.958 49.8206 119.805 47.5244C121.081 46.7831 120.923 46.5096 118.255 44.6461ZM108.868 68.3135L108.857 71.3796C108.454 70.7484 102.073 57.0592 95.3009 54.4472C93.4523 53.7414 93.0705 53.3781 94.017 53.1817C97.0524 52.5519 100.112 43.5083 99.9365 35.4424C99.8838 31.7427 99.9546 31.5918 101.264 33.6351C104.008 38.002 107.841 41.8707 112.683 45.1895L115.863 47.3897C115.592 47.8885 108.844 52.284 108.868 68.3135Z" fill="black"/>
<path d="M149.765 78.211C143.774 75.0965 138.483 68.4668 137.217 62.3635C136.662 59.6871 132.468 57.357 132.707 65.2393C133.032 75.0104 132.49 77.8123 129.568 82.2656C127.155 85.8981 127.082 85.7091 131.117 85.9612C134.878 86.2021 138.497 90.3538 141.981 98.4482C144.148 103.479 148.079 102.902 147.132 97.5152C145.796 89.9284 146.652 85.3591 150.054 82.066C152.203 79.952 152.167 79.4489 149.765 78.211ZM146.207 80.7538C145.146 81.3825 142.608 84.7345 142.134 86.0584C141.5 87.9262 141.532 87.9194 140.011 86.3287C138.707 84.9652 136.03 83.7162 134.435 83.7407C133.206 83.7234 133.225 83.6517 134.732 81.3986C135.463 80.3277 136.364 78.2682 136.746 76.8272C137.625 73.6829 137.436 73.7565 139.307 75.7174C140.736 77.1911 142.885 78.6854 145.47 79.9874C146.178 80.283 146.448 80.6017 146.207 80.7538Z" fill="black"/>
</g>
<g clip-path="url(#clip1_50_17)">
<path d="M33.0317 178.039C31.6141 176.151 29.1216 176.059 25.8217 177.756C21.2798 180.051 20.7657 181.31 23.9002 182.348C26.7106 183.288 34.2959 179.705 33.0317 178.039Z" fill="black"/>
<path d="M34.9024 171.133C35.2214 170.08 31.7862 167.846 30.0914 168.04C27.2614 168.332 9.76517 175.147 8.62997 175.245C5.86501 175.469 9.07081 178.607 12.1389 178.696C14.9517 178.752 34.5589 172.267 34.9024 171.133Z" fill="black"/>
<path d="M35.7655 126.25C38.7908 127.21 39.9198 126.403 38.4948 124.246C35.754 120.011 33.1975 118.087 30.6351 118.372C27.6308 118.656 31.6996 124.929 35.7655 126.25Z" fill="black"/>
<path d="M81.8099 144.886C83.9846 145.589 88.8481 144.276 88.9854 142.947C89.227 140.544 84.691 139.17 81.5739 140.702C78.2053 142.334 78.2582 143.765 81.8099 144.886Z" fill="black"/>
<path d="M45.1125 127.799C48.8606 129.731 49.166 127.701 46.3759 119.25C41.2338 103.676 39.1779 99.5154 36.7614 99.7561C33.5424 100.019 41.2269 125.738 45.1125 127.799Z" fill="black"/>
<path d="M108.566 140.345C106.323 140.594 88.5718 145.917 84.0152 147.676C83.0089 148.079 85.4599 150.059 87.5745 150.523C89.689 150.987 90.5812 150.815 100.54 147.862C106.422 146.107 111.854 144.525 112.572 144.344C116.04 143.405 112.503 139.902 108.566 140.345Z" fill="black"/>
<path d="M76.6316 187.666C75.058 184.979 72.3641 182.924 71.2436 183.558C70.5576 183.925 71.299 185.564 73.0087 187.365C75.753 190.274 78.302 190.471 76.6316 187.666Z" fill="black"/>
<path d="M77.6395 164.05C80.1701 163.579 80.2277 163.243 78.4934 160.064C73.1652 150.358 72.0249 131.354 75.6869 114.157C76.9885 107.963 73.089 100.547 65.7364 114.017C56.4328 131.007 41.847 146.752 35.3168 146.851C30.9148 146.933 30.5382 149.781 34.7502 151.057C40.9872 152.947 43.0887 159.729 41.5925 173.426C40.62 182.328 39.3422 196.179 39.3767 196.941C39.4934 198.745 44.2444 203.058 48.966 192.727C55.6043 178.113 68.0083 165.775 77.6395 164.05ZM71.1975 160.065C63.0795 162.779 53.6928 169.972 49.8693 176.464C48.9735 177.961 48.6016 177.583 48.8788 175.5C50.3666 164.897 48.8456 157.804 44.1448 152.886L42.3382 150.968C50.0474 146.539 53.3547 145.109 65.8725 128.163C66.4014 127.439 66.4051 127.573 66.3785 132.915C66.27 143.052 67.6598 150.725 70.6474 156.626C72.1228 159.638 72.1265 159.771 71.1975 160.065Z" fill="black"/>
<path d="M63.0458 184.347C61.6628 184.679 61.7904 185.425 63.9078 190.842C67.6234 200.325 70.1358 203.562 72.7215 202.179C73.9352 201.53 73.7069 200.532 70.9365 193.767C67.5057 185.388 66.039 183.662 63.0458 184.347Z" fill="black"/>
</g>
<defs>
<clipPath id="clip0_50_17">
<rect width="100" height="100" fill="white" transform="translate(58 20.3163) rotate(-11.722)"/>
</clipPath>
<clipPath id="clip1_50_17">
<rect width="100" height="100" fill="white" transform="translate(28.9934 92) rotate(16.8541)"/>
</clipPath>
</defs>
</svg>
